<?xml version="1.0" standalone="no"?>
<!DOCTYPE svg PUBLIC "-//W3C//DTD SVG 20010904//EN"
 "http://www.w3.org/TR/2001/REC-SVG-20010904/DTD/svg10.dtd">
<svg version="1.0" xmlns="http://www.w3.org/2000/svg"
 width="1174.000000pt" height="434.000000pt" viewBox="0 0 1174.000000 434.000000"
 preserveAspectRatio="xMidYMid meet">

<g transform="translate(0.000000,434.000000) scale(0.100000,-0.100000)"
fill="#000000" stroke="none">
<path d="M4320 3770 c0 -6 -77 -10 -210 -10 -133 0 -210 -4 -210 -10 0 -6 -37
-10 -90 -10 -53 0 -90 -4 -90 -10 0 -6 -27 -10 -60 -10 -33 0 -60 -4 -60 -10
0 -5 -22 -10 -50 -10 -27 0 -50 -4 -50 -10 0 -5 -18 -10 -40 -10 -22 0 -40 -4
-40 -10 0 -5 -13 -10 -30 -10 -16 0 -30 -4 -30 -10 0 -5 -13 -10 -30 -10 -16
0 -30 -4 -30 -10 0 -5 -13 -10 -30 -10 -16 0 -30 -4 -30 -10 0 -5 -9 -10 -20
-10 -11 0 -20 -4 -20 -10 0 -5 -13 -10 -30 -10 -16 0 -30 -4 -30 -10 0 -5 -9
-10 -20 -10 -11 0 -20 -4 -20 -10 0 -5 -9 -10 -20 -10 -11 0 -20 -4 -20 -10 0
-5 -8 -10 -18 -10 -10 0 -24 -9 -32 -20 -8 -11 -22 -20 -32 -20 -10 0 -18 -4
-18 -10 0 -5 -8 -10 -18 -10 -10 0 -24 -9 -32 -20 -8 -11 -21 -20 -28 -20 -8
0 -27 -13 -42 -30 -15 -16 -33 -30 -40 -30 -7 0 -25 -13 -40 -30 -15 -16 -33
-30 -40 -30 -6 0 -29 -18 -50 -40 -21 -22 -43 -40 -50 -40 -6 0 -55 -45 -110
-100 -55 -55 -104 -100 -110 -100 -6 0 -132 -121 -280 -270 -148 -148 -274
-270 -280 -270 -6 0 -132 -122 -280 -270 -148 -148 -274 -270 -280 -270 -6 0
-132 -121 -280 -270 -148 -149 -274 -270 -280 -270 -16 0 -240 -228 -240 -245
0 -13 87 -15 748 -15 736 0 748 0 762 20 8 11 20 20 27 20 8 0 85 72 173 160
88 88 164 160 170 160 6 0 87 77 180 170 93 94 174 170 180 170 6 0 82 72 170
160 88 88 164 160 170 160 6 0 69 59 140 130 71 72 134 130 141 130 6 0 28 18
49 40 21 22 44 40 50 40 7 0 25 14 40 30 15 17 34 30 42 30 7 0 20 9 28 20 8
11 22 20 32 20 10 0 18 5 18 10 0 6 9 10 20 10 11 0 20 5 20 10 0 6 9 10 20
10 11 0 20 5 20 10 0 6 9 10 20 10 11 0 20 5 20 10 0 6 14 10 30 10 17 0 30 5
30 10 0 6 14 10 30 10 17 0 30 5 30 10 0 6 14 10 30 10 17 0 30 5 30 10 0 6
23 10 50 10 28 0 50 5 50 10 0 6 33 10 80 10 47 0 80 4 80 10 0 6 93 10 260
10 167 0 260 4 260 10 0 7 618 10 1835 10 l1836 0 119 120 c66 66 124 120 130
120 6 0 96 86 200 190 104 105 194 190 200 190 10 0 360 345 360 355 0 3
-1134 5 -2520 5 -1673 0 -2520 -3 -2520 -10z"/>
<path d="M9480 3670 c-58 -60 -111 -109 -118 -109 -7 -1 -165 -154 -352 -341
-187 -187 -344 -340 -350 -340 -6 0 -163 -153 -350 -340 -187 -187 -344 -340
-350 -340 -6 0 -163 -153 -350 -340 -187 -187 -344 -340 -350 -340 -16 0 -360
-348 -360 -365 0 -13 96 -15 820 -15 540 0 820 3 820 10 0 6 7 10 15 10 8 0
128 113 265 250 137 138 254 250 260 250 6 0 154 144 330 320 176 176 324 320
330 320 6 0 150 140 320 310 170 171 314 310 320 310 6 0 150 140 320 310 170
171 314 310 320 310 16 0 220 208 220 225 0 13 -95 15 -827 14 l-828 0 -105
-109z"/>
<path d="M4480 2630 c0 -6 -63 -10 -170 -10 -107 0 -170 -4 -170 -10 0 -6 -27
-10 -60 -10 -33 0 -60 -4 -60 -10 0 -5 -22 -10 -50 -10 -27 0 -50 -4 -50 -10
0 -5 -13 -10 -30 -10 -16 0 -30 -4 -30 -10 0 -5 -13 -10 -30 -10 -16 0 -30 -4
-30 -10 0 -5 -9 -10 -20 -10 -11 0 -20 -4 -20 -10 0 -5 -9 -10 -20 -10 -11 0
-20 -4 -20 -10 0 -5 -9 -10 -20 -10 -11 0 -20 -4 -20 -10 0 -5 -8 -10 -18 -10
-10 0 -24 -9 -32 -20 -8 -11 -21 -20 -28 -20 -7 0 -31 -18 -52 -40 -21 -22
-43 -40 -49 -40 -7 0 -79 -67 -161 -150 -82 -82 -154 -150 -160 -150 -6 0
-163 -153 -350 -340 -187 -187 -344 -340 -350 -340 -16 0 -200 -188 -200 -205
0 -13 81 -15 695 -15 l695 0 170 170 c93 94 174 170 180 170 6 0 38 27 70 60
32 33 65 60 72 60 8 0 20 9 28 20 8 11 22 20 32 20 10 0 18 5 18 10 0 6 14 10
30 10 17 0 30 5 30 10 0 6 18 10 40 10 22 0 40 5 40 10 0 6 37 10 90 10 53 0
90 4 90 10 0 7 455 10 1345 10 l1345 0 280 280 c154 154 284 280 290 280 16 0
340 328 340 345 0 13 -207 15 -1840 15 -1220 0 -1840 -3 -1840 -10z"/>
<path d="M8860 1310 c0 -5 -9 -10 -20 -10 -13 0 -20 -7 -20 -20 0 -11 -4 -20
-10 -20 -5 0 -10 -13 -10 -30 0 -16 5 -30 10 -30 6 0 10 11 10 25 0 33 42 75
75 75 14 0 25 5 25 10 0 6 -13 10 -30 10 -16 0 -30 -4 -30 -10z"/>
<path d="M8940 1290 c0 -5 5 -10 10 -10 6 0 10 -9 10 -20 0 -11 5 -20 10 -20
15 0 12 29 -4 46 -17 16 -26 18 -26 4z"/>
<path d="M8860 1230 c0 -27 5 -50 10 -50 6 0 10 18 10 40 0 33 3 40 20 40 11
0 20 -4 20 -10 0 -5 -4 -10 -10 -10 -5 0 -10 -13 -10 -30 0 -16 5 -30 10 -30
6 0 10 13 10 29 0 16 6 31 12 33 21 7 -17 38 -46 38 -24 0 -26 -3 -26 -50z"/>
<path d="M8960 1204 c0 -26 -26 -44 -64 -44 -20 0 -36 -4 -36 -10 0 -21 70
-10 95 15 25 24 33 55 15 55 -5 0 -10 -7 -10 -16z"/>
<path d="M8820 1170 c0 -5 5 -10 10 -10 6 0 10 5 10 10 0 6 -4 10 -10 10 -5 0
-10 -4 -10 -10z"/>
<path d="M460 820 l0 -40 116 0 c87 0 119 -4 130 -14 11 -12 14 -57 14 -230
l0 -216 50 0 50 0 0 230 0 230 120 0 120 0 0 40 0 40 -300 0 -300 0 0 -40z"/>
<path d="M1480 590 l0 -270 50 0 50 0 0 120 0 120 210 0 210 0 0 -120 0 -120
50 0 50 0 0 270 0 270 -50 0 -50 0 0 -110 0 -110 -196 0 c-156 0 -198 3 -210
14 -10 11 -14 41 -14 110 l0 96 -50 0 -50 0 0 -270z"/>
<path d="M2560 590 l0 -270 280 0 280 0 0 40 0 40 -216 0 c-173 0 -218 3 -230
14 -9 10 -14 37 -14 80 l0 66 210 0 210 0 0 40 0 40 -210 0 -210 0 0 70 0 70
216 0 c220 0 244 4 244 40 0 6 -6 18 -14 26 -12 11 -63 14 -280 14 l-266 0 0
-270z"/>
<path d="M4140 590 l0 -270 50 0 50 0 0 190 c0 105 2 190 5 190 11 0 55 -49
55 -60 0 -6 23 -33 50 -60 28 -27 50 -54 50 -60 0 -19 89 -100 110 -100 22 0
70 41 70 60 0 7 18 29 40 50 22 21 40 44 40 50 0 6 18 29 40 50 22 21 40 46
40 54 0 9 5 16 10 16 6 0 10 -70 10 -190 l0 -190 50 0 50 0 0 270 0 270 -50 0
c-39 0 -50 -4 -50 -16 0 -8 -18 -33 -40 -54 -22 -21 -40 -44 -40 -50 0 -6 -18
-29 -40 -50 -22 -21 -40 -43 -40 -49 0 -15 -86 -101 -100 -101 -15 0 -40 25
-40 40 0 6 -18 29 -40 50 -22 21 -40 44 -40 50 0 6 -18 29 -40 50 -22 21 -40
43 -40 50 0 6 -16 26 -35 45 -29 30 -41 35 -80 35 l-45 0 0 -270z"/>
<path d="M5400 850 c0 -5 -7 -10 -15 -10 -9 0 -27 -11 -40 -25 -25 -24 -25
-25 -25 -225 l0 -201 35 -34 34 -35 251 0 251 0 34 35 35 34 0 201 c0 200 0
201 -25 225 -13 14 -31 25 -40 25 -8 0 -15 5 -15 10 0 6 -87 10 -240 10 -153
0 -240 -4 -240 -10z m435 -95 c24 -23 25 -29 25 -165 0 -136 -1 -142 -25 -165
-24 -25 -27 -25 -195 -25 -168 0 -171 0 -195 25 -24 23 -25 29 -25 165 0 197
-10 189 218 189 171 1 173 1 197 -24z"/>
<path d="M6340 850 c0 -5 5 -10 10 -10 6 0 10 -9 10 -20 0 -11 5 -20 10 -20 6
0 10 -8 10 -18 0 -10 9 -24 20 -32 11 -8 20 -22 20 -32 0 -10 5 -18 10 -18 6
0 10 -9 10 -20 0 -11 5 -20 10 -20 6 0 10 -9 10 -20 0 -11 5 -20 10 -20 6 0
10 -8 10 -18 0 -10 9 -24 20 -32 11 -8 20 -22 20 -32 0 -10 5 -18 10 -18 6 0
10 -9 10 -20 0 -11 5 -20 10 -20 6 0 10 -8 10 -18 0 -10 9 -24 20 -32 11 -8
20 -22 20 -32 0 -10 5 -18 10 -18 6 0 10 -7 10 -16 0 -27 27 -44 70 -44 43 0
70 17 70 44 0 9 5 16 10 16 6 0 10 8 10 18 0 10 9 24 20 32 11 8 20 22 20 32
0 10 5 18 10 18 6 0 10 9 10 20 0 11 5 20 10 20 6 0 10 8 10 18 0 10 9 24 20
32 11 8 20 22 20 32 0 10 5 18 10 18 6 0 10 9 10 20 0 11 5 20 10 20 6 0 10 9
10 20 0 11 5 20 10 20 6 0 10 8 10 18 0 10 9 24 20 32 11 8 20 22 20 32 0 10
5 18 10 18 6 0 10 9 10 20 0 11 5 20 10 20 6 0 10 5 10 10 0 6 -27 10 -60 10
-53 0 -60 -2 -60 -20 0 -11 -4 -20 -10 -20 -5 0 -10 -9 -10 -20 0 -11 -4 -20
-10 -20 -5 0 -10 -8 -10 -18 0 -10 -9 -24 -20 -32 -11 -8 -20 -22 -20 -32 0
-10 -4 -18 -10 -18 -5 0 -10 -9 -10 -20 0 -11 -4 -20 -10 -20 -5 0 -10 -9 -10
-20 0 -11 -4 -20 -10 -20 -5 0 -10 -9 -10 -20 0 -11 -4 -20 -10 -20 -5 0 -10
-8 -10 -18 0 -10 -9 -24 -20 -32 -11 -8 -20 -20 -20 -28 0 -7 -7 -20 -15 -28
-13 -14 -17 -14 -30 0 -8 8 -15 22 -15 30 0 9 -4 16 -10 16 -5 0 -10 9 -10 20
0 11 -4 20 -10 20 -5 0 -10 9 -10 20 0 11 -4 20 -10 20 -5 0 -10 8 -10 18 0
10 -9 24 -20 32 -11 8 -20 22 -20 32 0 10 -4 18 -10 18 -5 0 -10 9 -10 20 0
11 -4 20 -10 20 -5 0 -10 9 -10 20 0 11 -4 20 -10 20 -5 0 -10 9 -10 20 0 11
-4 20 -10 20 -5 0 -10 7 -10 16 0 30 -27 44 -84 44 -31 0 -56 -4 -56 -10z"/>
<path d="M7460 590 l0 -270 50 0 50 0 0 270 0 270 -50 0 -50 0 0 -270z"/>
<path d="M8020 590 l0 -270 280 0 280 0 0 40 0 40 -230 0 -230 0 0 80 0 80
210 0 210 0 0 40 0 40 -210 0 -210 0 0 70 0 70 220 0 220 0 0 40 0 40 -270 0
-270 0 0 -270z"/>
</g>
</svg>
