<?xml version="1.0" standalone="no"?>
<!DOCTYPE svg PUBLIC "-//W3C//DTD SVG 20010904//EN"
 "http://www.w3.org/TR/2001/REC-SVG-20010904/DTD/svg10.dtd">
<svg version="1.0" xmlns="http://www.w3.org/2000/svg"
 width="770.000000pt" height="474.000000pt" viewBox="0 0 770.000000 474.000000"
 preserveAspectRatio="xMidYMid meet">

<g transform="translate(0.000000,700.000000) scale(0.100000,-0.160000)"
fill="#000000" stroke="none">
<path d="M0 2370 l0 -2370 3850 0 3850 0 0 2370 0 2370 -3850 0 -3850 0 0
-2370z m5640 580 l-305 -300 -1176 0 c-739 0 -1215 -4 -1280 -10 -133 -14
-237 -42 -319 -87 -110 -60 -136 -82 -580 -513 -168 -163 -326 -316 -352 -339
l-47 -43 -438 2 c-240 0 -440 3 -443 7 -3 3 138 145 312 317 174 171 462 455
640 631 193 192 359 348 413 387 198 148 399 216 691 237 60 5 802 9 1649 9
l1540 1 -305 -299z m1410 292 c0 -4 -357 -364 -793 -800 l-792 -792 -487 0
c-268 0 -489 4 -492 8 -3 5 352 365 787 800 l792 792 493 0 c270 0 492 -3 492
-8z m-1810 -688 c0 -3 -121 -128 -270 -277 l-270 -272 -842 -5 -843 -6 -65
-24 c-59 -21 -79 -37 -216 -172 l-152 -148 -411 0 c-226 0 -411 4 -411 8 0 13
666 681 737 739 113 93 233 137 423 152 107 9 2320 14 2320 5z m629 -720 c63
-45 58 -142 -10 -179 -94 -50 -191 53 -140 148 25 46 105 62 150 31z"/>
<path d="M5745 1798 c-32 -38 -29 -81 11 -115 29 -27 54 -29 93 -8 48 24 58
96 18 133 -36 34 -89 30 -122 -10z m82 6 c20 -6 22 -12 20 -60 -2 -57 -10 -67
-27 -34 -14 26 -30 26 -30 -1 0 -40 -25 -13 -28 30 -5 70 6 81 65 65z"/>
<path d="M5793 1774 c-7 -19 2 -28 22 -21 19 8 19 23 0 31 -9 3 -18 -1 -22
-10z"/>
</g>
</svg>
